HIERARCHY
ROOT Hips
{
	OFFSET 0.000000 83.214638 0.000000
	CHANNELS 6 Xposition Yposition Zposition Xrotation Yrotation Zrotation
	JOINT Pelvis
	{
		OFFSET 0.000000 0.000000 0.000000
		CHANNELS 3 Xrotation Yrotation Zrotation
		JOINT LeftUpLeg
		{
			OFFSET 8.479700 -4.795502 -0.379100
			CHANNELS 3 Xrotation Yrotation Zrotation
			JOINT LeftLeg
			{
				OFFSET 0.024144 -32.555107 0.112900
				CHANNELS 3 Xrotation Yrotation Zrotation
				JOINT LeftFoot
				{
					OFFSET -0.024144 -32.638630 -3.012600
					CHANNELS 3 Xrotation Yrotation Zrotation
					JOINT LeftToeBase
					{
						OFFSET 0.970200 -13.225400 11.864200
						CHANNELS 3 Xrotation Yrotation Zrotation
						End Site
						{
							OFFSET 0.000000 12.319262 0.000000
						}
					}
					JOINT LFootTongue
					{
						OFFSET 1.142400 -1.059800 6.665200
						CHANNELS 3 Xrotation Yrotation Zrotation
						End Site
						{
							OFFSET 0.000000 12.319262 0.000000
						}
					}
				}
				JOINT LeftPantLeg
				{
					OFFSET 0.918482 -16.533964 -2.284700
					CHANNELS 3 Xrotation Yrotation Zrotation
					End Site
					{
						OFFSET 0.350399 24.744368 0.000000
					}
				}
			}
		}
		JOINT RightUpLeg
		{
			OFFSET -8.479700 -4.795502 -0.379100
			CHANNELS 3 Xrotation Yrotation Zrotation
			JOINT RightLeg
			{
				OFFSET -0.023144 -32.555092 0.112900
				CHANNELS 3 Xrotation Yrotation Zrotation
				JOINT RightFoot
				{
					OFFSET 0.023144 -32.638641 -3.012700
					CHANNELS 3 Xrotation Yrotation Zrotation
					JOINT RightToeBase
					{
						OFFSET -0.970200 -13.225400 11.864200
						CHANNELS 3 Xrotation Yrotation Zrotation
						End Site
						{
							OFFSET 0.000000 12.319244 0.000000
						}
					}
					JOINT RFootTongue
					{
						OFFSET -1.142200 -1.059800 6.665200
						CHANNELS 3 Xrotation Yrotation Zrotation
						End Site
						{
							OFFSET 0.000000 12.319243 0.000000
						}
					}
				}
				JOINT RightPantLeg
				{
					OFFSET -0.919482 -16.533978 -2.284800
					CHANNELS 3 Xrotation Yrotation Zrotation
					End Site
					{
						OFFSET -0.350400 24.744419 0.000000
					}
				}
			}
		}
	}
	JOINT Spine
	{
		OFFSET 0.000000 7.722000 1.166200
		CHANNELS 3 Xrotation Yrotation Zrotation
		JOINT Spine1
		{
			OFFSET 0.000000 12.024101 0.248800
			CHANNELS 3 Xrotation Yrotation Zrotation
			JOINT Spine2
			{
				OFFSET 0.000000 11.502998 -0.491200
				CHANNELS 3 Xrotation Yrotation Zrotation
				JOINT Neck
				{
					OFFSET 0.000000 18.430702 -3.123100
					CHANNELS 3 Xrotation Yrotation Zrotation
					JOINT Head
					{
						OFFSET 0.000000 9.051102 1.034000
						CHANNELS 3 Xrotation Yrotation Zrotation
						JOINT HairB
						{
							OFFSET 0.208400 24.786102 24.822300
							CHANNELS 3 Xrotation Yrotation Zrotation
							End Site
							{
								OFFSET 0.000000 32.263779 0.000000
							}
						}
						JOINT HairA
						{
							OFFSET -7.081100 24.428299 23.196600
							CHANNELS 3 Xrotation Yrotation Zrotation
							End Site
							{
								OFFSET 0.000000 32.263779 0.000000
							}
						}
						JOINT Hat
						{
							OFFSET 16.728800 15.048294 -15.439601
							CHANNELS 3 Xrotation Yrotation Zrotation
							End Site
							{
								OFFSET 0.000000 32.263779 0.000000
							}
						}
					}
				}
				JOINT LeftShoulder
				{
					OFFSET 6.197800 13.665199 -4.064700
					CHANNELS 3 Xrotation Yrotation Zrotation
					JOINT LeftArm
					{
						OFFSET 7.778100 -0.187103 -1.709300
						CHANNELS 3 Xrotation Yrotation Zrotation
						JOINT LeftForeArm
						{
							OFFSET 22.049376 0.000000 0.000000
							CHANNELS 3 Xrotation Yrotation Zrotation
							JOINT LeftHand
							{
								OFFSET 23.009392 0.000000 0.000000
								CHANNELS 3 Xrotation Yrotation Zrotation
								JOINT LeftHandThumb1
								{
									OFFSET 3.507191 -2.063065 3.133727
									CHANNELS 3 Xrotation Yrotation Zrotation
									JOINT LeftHandThumb2
									{
										OFFSET 3.101337 -1.790558 1.790558
										CHANNELS 3 Xrotation Yrotation Zrotation
										JOINT LeftHandThumb3
										{
											OFFSET 3.058640 -1.765907 1.765906
											CHANNELS 3 Xrotation Yrotation Zrotation
											End Site
											{
												OFFSET -0.415260 3.926476 -0.049563
											}
										}
									}
								}
								JOINT LeftHandIndex1
								{
									OFFSET 11.334419 -0.901459 3.706815
									CHANNELS 3 Xrotation Yrotation Zrotation
									JOINT LeftHandIndex2
									{
										OFFSET 3.283112 0.000000 0.000000
										CHANNELS 3 Xrotation Yrotation Zrotation
										JOINT LeftHandIndex3
										{
											OFFSET 3.323853 0.000000 0.000000
											CHANNELS 3 Xrotation Yrotation Zrotation
											End Site
											{
												OFFSET -1.135597 3.097809 0.402452
											}
										}
									}
								}
								JOINT LeftHandMiddle1
								{
									OFFSET 11.335861 0.000000 0.000000
									CHANNELS 3 Xrotation Yrotation Zrotation
									JOINT LeftHandMiddle2
									{
										OFFSET 3.410492 0.000000 0.000000
										CHANNELS 3 Xrotation Yrotation Zrotation
										JOINT LeftHandMiddle3
										{
											OFFSET 3.312172 0.000000 0.000000
											CHANNELS 3 Xrotation Yrotation Zrotation
											End Site
											{
												OFFSET -1.150200 3.080154 0.400270
											}
										}
									}
								}
								JOINT LeftHandRing1
								{
									OFFSET 11.514786 -0.013176 -3.003090
									CHANNELS 3 Xrotation Yrotation Zrotation
									JOINT LeftHandRing2
									{
										OFFSET 3.053307 0.000000 0.000000
										CHANNELS 3 Xrotation Yrotation Zrotation
										JOINT LeftHandRing3
										{
											OFFSET 3.295807 0.000000 0.000000
											CHANNELS 3 Xrotation Yrotation Zrotation
											End Site
											{
												OFFSET -1.281006 3.013344 0.375733
											}
										}
									}
								}
								JOINT LeftHandPinky1
								{
									OFFSET 10.518692 -0.960396 -5.730441
									CHANNELS 3 Xrotation Yrotation Zrotation
									JOINT LeftHandPinky2
									{
										OFFSET 2.861649 0.000000 0.000000
										CHANNELS 3 Xrotation Yrotation Zrotation
										JOINT LeftHandPinky3
										{
											OFFSET 2.863380 0.000000 0.000000
											CHANNELS 3 Xrotation Yrotation Zrotation
											End Site
											{
												OFFSET -0.843597 2.711159 0.369971
											}
										}
									}
								}
							}
							JOINT LSleeve
							{
								OFFSET 6.676277 -0.344902 -1.011730
								CHANNELS 3 Xrotation Yrotation Zrotation
								End Site
								{
									OFFSET 0.000000 14.885353 0.000000
								}
							}
						}
					}
				}
				JOINT RightShoulder
				{
					OFFSET -6.197800 13.665199 -4.064700
					CHANNELS 3 Xrotation Yrotation Zrotation
					JOINT RightArm
					{
						OFFSET -7.778100 -0.187103 -1.709300
						CHANNELS 3 Xrotation Yrotation Zrotation
						JOINT RightForeArm
						{
							OFFSET -22.049376 0.000000 0.000000
							CHANNELS 3 Xrotation Yrotation Zrotation
							JOINT RightHand
							{
								OFFSET -23.009392 0.000000 0.000000
								CHANNELS 3 Xrotation Yrotation Zrotation
								JOINT RightHandThumb1
								{
									OFFSET -3.507191 -2.063065 3.133727
									CHANNELS 3 Xrotation Yrotation Zrotation
									JOINT RightHandThumb2
									{
										OFFSET -3.101337 -1.790558 1.790558
										CHANNELS 3 Xrotation Yrotation Zrotation
										JOINT RightHandThumb3
										{
											OFFSET -3.058640 -1.765907 1.765906
											CHANNELS 3 Xrotation Yrotation Zrotation
											End Site
											{
												OFFSET 0.415260 3.926476 -0.049563
											}
										}
									}
								}
								JOINT RightHandIndex1
								{
									OFFSET -11.334419 -0.901459 3.706815
									CHANNELS 3 Xrotation Yrotation Zrotation
									JOINT RightHandIndex2
									{
										OFFSET -3.283112 0.000000 0.000000
										CHANNELS 3 Xrotation Yrotation Zrotation
										JOINT RightHandIndex3
										{
											OFFSET -3.323853 0.000000 0.000000
											CHANNELS 3 Xrotation Yrotation Zrotation
											End Site
											{
												OFFSET 1.135597 3.097809 0.402452
											}
										}
									}
								}
								JOINT RightHandMiddle1
								{
									OFFSET -11.335861 0.000000 0.000000
									CHANNELS 3 Xrotation Yrotation Zrotation
									JOINT RightHandMiddle2
									{
										OFFSET -3.410492 0.000000 0.000000
										CHANNELS 3 Xrotation Yrotation Zrotation
										JOINT RightHandMiddle3
										{
											OFFSET -3.312172 0.000000 0.000000
											CHANNELS 3 Xrotation Yrotation Zrotation
											End Site
											{
												OFFSET 1.150200 3.080154 0.400270
											}
										}
									}
								}
								JOINT RightHandRing1
								{
									OFFSET -11.514786 -0.013176 -3.003090
									CHANNELS 3 Xrotation Yrotation Zrotation
									JOINT RightHandRing2
									{
										OFFSET -3.053307 0.000000 0.000000
										CHANNELS 3 Xrotation Yrotation Zrotation
										JOINT RightHandRing3
										{
											OFFSET -3.295807 0.000000 0.000000
											CHANNELS 3 Xrotation Yrotation Zrotation
											End Site
											{
												OFFSET 1.281006 3.013344 0.375733
											}
										}
									}
								}
								JOINT RightHandPinky1
								{
									OFFSET -10.518692 -0.960396 -5.730441
									CHANNELS 3 Xrotation Yrotation Zrotation
									JOINT RightHandPinky2
									{
										OFFSET -2.861649 0.000000 0.000000
										CHANNELS 3 Xrotation Yrotation Zrotation
										JOINT RightHandPinky3
										{
											OFFSET -2.863380 0.000000 0.000000
											CHANNELS 3 Xrotation Yrotation Zrotation
											End Site
											{
												OFFSET 0.843597 2.711159 0.369971
											}
										}
									}
								}
							}
							JOINT RSleeve
							{
								OFFSET -6.676277 -0.344902 -1.011730
								CHANNELS 3 Xrotation Yrotation Zrotation
								End Site
								{
									OFFSET 0.000000 14.885353 0.000000
								}
							}
						}
					}
				}
				JOINT Backpack
				{
					OFFSET 0.000000 -2.471497 36.677502
					CHANNELS 3 Xrotation Yrotation Zrotation
					End Site
					{
						OFFSET 0.000000 20.427315 0.000000
					}
				}
				JOINT Hood
				{
					OFFSET 0.000000 18.754097 -10.431000
					CHANNELS 3 Xrotation Yrotation Zrotation
					JOINT Hood1
					{
						OFFSET 0.000000 -5.011002 -7.685901
						CHANNELS 3 Xrotation Yrotation Zrotation
						End Site
						{
							OFFSET 0.000000 9.175140 0.000000
						}
					}
				}
				JOINT LHoodieString
				{
					OFFSET 5.250500 16.397697 3.089900
					CHANNELS 3 Xrotation Yrotation Zrotation
					JOINT LHoodieString1
					{
						OFFSET 0.257700 -6.364304 3.694600
						CHANNELS 3 Xrotation Yrotation Zrotation
						JOINT LHoodieString2
						{
							OFFSET 0.000000 -9.643799 2.679100
							CHANNELS 3 Xrotation Yrotation Zrotation
							End Site
							{
								OFFSET 0.000000 10.009018 0.000000
							}
						}
					}
				}
				JOINT RHoodieString
				{
					OFFSET -5.250500 16.397697 3.089900
					CHANNELS 3 Xrotation Yrotation Zrotation
					JOINT RHoodieString1
					{
						OFFSET -0.257700 -6.364304 3.694600
						CHANNELS 3 Xrotation Yrotation Zrotation
						JOINT RHoodieString2
						{
							OFFSET 0.000000 -9.643799 2.679100
							CHANNELS 3 Xrotation Yrotation Zrotation
							End Site
							{
								OFFSET 0.000000 10.009018 0.000000
							}
						}
					}
				}
			}
			JOINT LBackpack_Strap
			{
				OFFSET 15.223200 -7.719803 -6.610900
				CHANNELS 3 Xrotation Yrotation Zrotation
				End Site
				{
					OFFSET 0.000000 16.040596 0.000000
				}
			}
			JOINT RBackpack_Strap
			{
				OFFSET -15.223000 -7.719803 -6.610900
				CHANNELS 3 Xrotation Yrotation Zrotation
				End Site
				{
					OFFSET 0.000000 16.040596 0.000000
				}
			}
		}
	}
	JOINT BoyFacialAnim_Joint
	{
		OFFSET 1.000000 -82.208099 -1.550900
		CHANNELS 3 Xrotation Yrotation Zrotation
		End Site
		{
			OFFSET 0.000000 30.012791 0.000000
		}
	}
}
MOTION
Frames: 4
Frame Time: 0.016667
-3.140403 72.131859 64.860466 31.855155 14.000475 -6.722865 0.000002 -0.000000 -0.000001 -12.689119 8.265429 3.558249 26.041619 21.112422 1.146933 -19.445759 0.153123 -24.370021 -0.000001 -0.000001 0.000000 -0.000001 -0.000001 0.000001 0.000000 0.000003 -0.000002 -73.445038 -9.157394 -2.828895 66.503284 -30.412783 -1.675512 -14.014244 -0.728587 1.485237 0.000000 0.000001 -0.000001 0.000000 0.000001 -0.000001 -0.000004 -0.000002 -0.000001 4.720468 -0.267004 1.729084 9.441407 0.085017 4.172058 9.441403 0.085014 4.172060 -7.147127 0.629938 -0.577767 -4.884833 0.126167 2.445929 0.000002 0.000000 -0.000000 0.000002 0.000000 -0.000000 0.000002 0.000000 -0.000000 3.345506 -20.374548 5.851154 -45.404133 -21.632018 -43.071730 105.129561 -62.566240 117.849805 32.351693 22.518601 68.310532 -22.329924 -10.232707 -0.665757 -13.008722 33.638811 5.466824 0.000000 -0.000001 0.000001 -3.249111 -3.487661 -45.487684 -11.741036 -5.662277 -117.786312 -0.000002 0.000000 -0.000000 -1.607294 -1.437557 -44.852828 -8.864453 -8.229462 -108.221608 -0.000003 -0.000000 0.000000 1.621469 4.447383 -42.845230 -1.055316 -8.990363 -99.406320 0.000000 -0.000001 -0.000002 2.581082 6.861436 -50.366385 0.502852 -8.788538 -83.370279 -0.000000 0.000001 -0.000002 0.000000 -0.000006 -0.000003 1.512595 10.066758 -3.702965 -39.856859 5.966737 40.669777 110.736641 51.476735 -131.206090 41.008575 -31.696121 -49.398783 -31.480574 10.386569 -14.209278 -13.008649 -33.638839 -5.466776 -0.000000 0.000003 0.000002 -3.485993 1.851561 32.874424 -8.875862 5.007733 106.188152 -0.000000 -0.000001 0.000003 -2.051663 0.230818 37.937104 -6.364969 7.372370 96.576894 0.000001 0.000001 0.000000 2.774037 -3.553467 41.587034 -1.339028 10.439951 83.973153 -0.000001 0.000001 -0.000001 4.714832 -4.516881 49.238789 -1.408700 11.737766 71.641977 0.000001 0.000000 0.000002 0.000001 0.000001 0.000001 -0.000003 -0.000000 -0.000000 -0.000003 -0.000000 -0.000000 -0.000003 -0.000000 -0.000000 -0.000003 -0.000000 -0.000000 -0.000003 -0.000000 -0.000000 0.000002 -0.000000 -0.000000 -0.000003 -0.000000 -0.000000 -0.000003 -0.000000 -0.000000 0.000002 -0.000000 -0.000000 0.000002 0.000001 -0.000001 0.000002 0.000001 -0.000001 0.000002 -0.000000 -0.000001 
-3.174156 72.017708 65.031036 32.063722 14.005306 -6.766747 -0.000002 0.000001 -0.000000 -12.967578 8.240550 3.677205 26.433203 21.109758 1.145051 -19.432737 0.089852 -24.610150 0.000001 0.000001 -0.000000 0.000001 0.000001 -0.000000 0.000002 0.000000 0.000001 -73.774362 -9.259597 -2.861392 66.956051 -30.392221 -1.674560 -14.155579 -0.730043 1.441931 -0.000000 -0.000000 0.000001 -0.000000 -0.000000 0.000001 0.000003 -0.000001 -0.000000 4.639482 -0.268690 1.729689 9.279509 0.081827 4.174584 9.279515 0.081824 4.174586 -7.203886 0.623596 -0.573730 -4.979427 0.067749 2.427053 -0.000001 0.000001 0.000001 -0.000001 0.000001 0.000001 -0.000001 0.000001 0.000001 3.403882 -20.465914 6.046222 -45.550771 -21.701371 -42.949240 104.319344 -62.881078 117.063186 32.170724 22.449018 68.336275 -22.329931 -10.232715 -0.665751 -13.008742 33.638811 5.466830 0.000003 -0.000000 -0.000000 -3.249123 -3.487654 -45.487690 -11.741035 -5.662292 -117.786325 -0.000001 0.000000 -0.000000 -1.607295 -1.437543 -44.852828 -8.864468 -8.229487 -108.221643 -0.000001 0.000000 0.000004 1.621481 4.447382 -42.845240 -1.055326 -8.990355 -99.406314 -0.000003 0.000001 -0.000002 2.581067 6.861421 -50.366378 0.502853 -8.788542 -83.370286 -0.000001 0.000003 0.000002 -0.000001 0.000002 -0.000000 1.519934 10.005077 -3.875170 -40.127269 6.220006 40.746754 110.235285 51.780484 -130.620879 41.065795 -31.594006 -49.231966 -31.480578 10.386561 -14.209253 -13.008681 -33.638859 -5.466802 -0.000003 0.000003 0.000002 -3.485994 1.851569 32.874431 -8.875850 5.007718 106.188145 -0.000001 -0.000001 -0.000000 -2.051662 0.230814 37.937111 -6.364967 7.372375 96.576901 0.000001 0.000000 0.000003 2.774041 -3.553476 41.587048 -1.339042 10.439983 83.973153 -0.000001 -0.000001 0.000000 4.714840 -4.516884 49.238803 -1.408719 11.737762 71.641977 -0.000001 -0.000000 0.000002 0.000001 -0.000002 0.000000 -0.000003 0.000000 -0.000000 -0.000003 0.000000 -0.000000 -0.000003 0.000000 -0.000000 -0.000003 0.000000 -0.000000 -0.000003 0.000000 -0.000000 0.000000 -0.000000 0.000000 -0.000003 0.000000 -0.000000 -0.000003 0.000000 -0.000000 0.000000 -0.000000 0.000000 0.000000 0.000000 0.000000 0.000000 0.000000 0.000000 -0.000002 0.000001 -0.000000 
-3.204996 71.905006 65.199188 32.278695 14.015278 -6.813956 -0.000002 -0.000001 -0.000000 -13.252708 8.214825 3.794534 26.819750 21.107779 1.143405 -19.411690 0.025902 -24.849534 -0.000001 0.000001 0.000000 -0.000001 0.000001 0.000001 -0.000003 0.000001 -0.000001 -74.100818 -9.365011 -2.903609 67.394829 -30.364262 -1.672974 -14.302596 -0.734390 1.408051 0.000000 -0.000001 -0.000000 0.000000 -0.000001 -0.000000 0.000003 0.000000 -0.000000 4.557615 -0.270223 1.732322 9.115785 0.078891 4.180704 9.115792 0.078890 4.180704 -7.260786 0.622991 -0.571326 -5.077534 0.011021 2.406296 0.000001 0.000001 0.000000 0.000001 0.000001 0.000000 0.000001 0.000001 0.000000 3.462212 -20.556769 6.238194 -45.726156 -21.783025 -42.867285 103.432410 -63.200396 116.209084 32.017973 22.348618 68.350734 -22.329931 -10.232713 -0.665749 -13.008738 33.638811 5.466839 0.000000 -0.000002 0.000001 -3.249103 -3.487652 -45.487690 -11.741041 -5.662312 -117.786284 -0.000001 0.000002 -0.000001 -1.607297 -1.437552 -44.852814 -8.864465 -8.229475 -108.221636 0.000000 -0.000001 -0.000000 1.621474 4.447385 -42.845227 -1.055315 -8.990371 -99.406334 -0.000002 0.000001 -0.000000 2.581071 6.861434 -50.366378 0.502844 -8.788549 -83.370293 0.000001 0.000001 -0.000005 -0.000000 0.000000 0.000001 1.527258 9.940853 -4.054028 -40.408393 6.474589 40.823624 109.704060 52.094987 -130.008170 41.123838 -31.479553 -49.070009 -31.480581 10.386565 -14.209246 -13.008675 -33.638839 -5.466806 -0.000001 0.000001 -0.000000 -3.485983 1.851559 32.874431 -8.875860 5.007739 106.188152 -0.000001 0.000000 0.000005 -2.051655 0.230811 37.937111 -6.364981 7.372380 96.576901 -0.000000 -0.000001 0.000003 2.774042 -3.553481 41.587048 -1.339034 10.439971 83.973153 0.000001 -0.000000 0.000006 4.714827 -4.516881 49.238800 -1.408700 11.737761 71.641984 -0.000000 -0.000001 -0.000003 -0.000001 0.000001 0.000001 -0.000005 0.000000 -0.000001 -0.000005 0.000000 -0.000001 -0.000005 0.000000 -0.000001 -0.000005 0.000000 -0.000001 -0.000005 0.000000 -0.000000 -0.000003 0.000000 -0.000000 -0.000005 0.000000 -0.000001 -0.000005 0.000000 -0.000000 -0.000003 0.000000 -0.000000 0.000002 0.000000 0.000000 0.000002 0.000000 0.000000 -0.000002 -0.000001 -0.000000 
-3.233135 71.792290 65.367043 32.495984 14.024631 -6.861016 -0.000001 -0.000000 -0.000000 -13.537502 8.188734 3.908629 27.201128 21.106254 1.142073 -19.383971 -0.038315 -25.088043 0.000001 -0.000000 -0.000001 0.000001 -0.000000 -0.000000 -0.000000 0.000000 -0.000002 -74.423749 -9.471539 -2.953828 67.828266 -30.314633 -1.669813 -14.453927 -0.740808 1.381135 0.000000 -0.000001 -0.000001 0.000000 -0.000001 -0.000001 -0.000003 -0.000003 0.000000 4.475254 -0.272126 1.734744 8.951162 0.075002 4.186377 8.951166 0.075007 4.186376 -7.318544 0.628105 -0.570277 -5.178920 -0.043946 2.385305 -0.000003 -0.000001 -0.000000 -0.000003 -0.000001 -0.000000 -0.000003 -0.000001 -0.000000 3.520942 -20.647264 6.429783 -45.923067 -21.869197 -42.821666 102.479284 -63.518307 115.301243 31.897294 22.218580 68.346479 -22.329919 -10.232718 -0.665742 -13.008745 33.638825 5.466849 0.000001 0.000002 -0.000002 -3.249100 -3.487658 -45.487697 -11.741052 -5.662298 -117.786298 0.000002 0.000000 -0.000003 -1.607286 -1.437537 -44.852828 -8.864474 -8.229473 -108.221636 -0.000002 0.000001 0.000002 1.621467 4.447382 -42.845240 -1.055308 -8.990358 -99.406314 -0.000001 0.000003 0.000002 2.581082 6.861446 -50.366358 0.502859 -8.788543 -83.370293 -0.000000 0.000002 0.000002 -0.000000 0.000001 -0.000000 1.534768 9.876781 -4.238350 -40.697044 6.729571 40.910425 109.140720 52.419031 -129.364124 41.180525 -31.352040 -48.919714 -31.480564 10.386581 -14.209240 -13.008684 -33.638866 -5.466828 -0.000000 0.000001 0.000001 -3.485983 1.851557 32.874438 -8.875854 5.007734 106.188138 -0.000001 -0.000001 0.000003 -2.051669 0.230813 37.937125 -6.364968 7.372369 96.576901 -0.000000 -0.000001 0.000001 2.774040 -3.553477 41.587055 -1.339031 10.439960 83.973146 -0.000001 0.000000 0.000002 4.714817 -4.516860 49.238793 -1.408722 11.737753 71.641991 -0.000000 -0.000000 0.000004 -0.000000 0.000003 -0.000000 0.000001 0.000000 0.000000 0.000001 0.000000 0.000000 0.000001 0.000000 0.000000 0.000001 0.000000 0.000000 0.000001 0.000000 0.000000 0.000001 0.000000 -0.000001 0.000001 0.000000 0.000000 0.000001 0.000000 0.000000 0.000001 0.000000 -0.000001 0.000001 0.000000 -0.000000 0.000001 0.000000 -0.000000 -0.000001 -0.000000 -0.000000 
